<svg width="79" height="89" viewBox="0 0 79 89" fill="none" xmlns="http://www.w3.org/2000/svg">
<path d="M78.562 0H0L7.365 79.867L39.277 88.918L71.189 79.867L78.562 0Z" fill="#E6A329"/>
<path d="M39.277 6.507V82.15L65.133 74.825L71.423 6.507H39.277Z" fill="#F1BF22"/>
<path d="M59.847 16.305H20.092L17.323 46.205L17.38 46.019H51.154L50.054 58.67L39.278 61.77L28.343 58.62L27.688 50.963H17.762L19.178 66.263L39.278 71.969L59.387 66.263L62.156 36.231H26.312L26.772 26.225H51.641L52.013 31.958H62.023L59.847 16.305Z" fill="white"/>
<path d="M39.286 16.305H20.092L17.323 46.205L17.38 46.019H39.285V36.265H27.71L28.17 26.259H39.286V16.305ZM27.71 50.968H17.761L19.177 66.26L39.277 71.96V61.784L28.342 58.626L27.71 50.968Z" fill="#EBEBEB"/>
</svg>
