<svg width="20" height="28" viewBox="0 0 20 28" fill="none" xmlns="http://www.w3.org/2000/svg">
<path d="M11.2707 5.07232C11.1756 5.13092 11.0425 5.15045 10.9665 5.13092C10.8239 5.07232 9.92084 5.29693 9.74974 5.43365C9.6832 5.48248 9.51209 5.55084 9.36951 5.5899C9.0368 5.66802 8.35239 6.10748 8.35239 6.23443C8.35239 6.29302 8.30486 6.33208 8.23832 6.33208C8.0482 6.33208 7.49687 6.82036 7.34478 7.14263C7.24972 7.31841 7.11664 7.50395 7.03109 7.57231C6.8885 7.66997 6.75542 7.93364 6.28964 9.06644C6.08051 9.57425 5.92842 11.166 6.0615 11.6055C6.11853 11.8106 6.16606 12.1133 6.16606 12.2988C6.16606 12.4844 6.28013 12.875 6.41321 13.168C6.5558 13.4609 6.70789 13.8027 6.75542 13.9102C6.81245 14.0274 6.95504 14.2227 7.07862 14.3496C7.20219 14.4766 7.36379 14.6426 7.43033 14.7207C7.82007 15.1602 8.14326 15.4531 8.43794 15.6191C8.62806 15.7266 8.92274 15.9219 9.10335 16.0488C9.28396 16.1855 9.58814 16.3418 9.77826 16.3906C9.97788 16.4492 10.187 16.5469 10.244 16.6152C10.3011 16.6934 10.5958 16.8301 10.8904 16.9277C11.1946 17.0254 11.5748 17.1621 11.7269 17.2305C11.8885 17.2891 12.2022 17.4062 12.4399 17.4746C12.6775 17.5332 13.1338 17.7187 13.4665 17.8652C13.7897 18.0215 14.1034 18.1484 14.1604 18.1484C14.2175 18.1484 14.5597 18.4023 14.9209 18.7051C15.5863 19.2715 15.7384 19.5449 15.9 20.4726C15.957 20.8047 15.7574 21.3222 15.3581 21.8789C15.0349 22.3281 13.9513 22.7968 12.9627 22.9043C10.5292 23.1875 8.66608 22.25 7.69649 20.248C7.47786 19.7988 7.30675 19.3496 7.30675 19.2324C7.30675 18.8906 6.90751 17.7578 6.78394 17.7578C6.62234 17.7578 6.16606 18.2754 6.16606 18.4707C6.16606 18.5586 6.10903 18.666 6.03298 18.7051C5.82385 18.832 5.61473 19.3496 5.45313 20.1504C5.32955 20.7656 5.32005 21.0781 5.39609 21.8691C5.45313 22.4453 5.54819 22.9238 5.63374 23.0507C5.71929 23.1679 5.78583 23.3632 5.78583 23.4707C5.78583 23.7148 6.12804 24.3007 6.36568 24.4765C6.47025 24.5449 6.54629 24.6621 6.54629 24.7304C6.54629 24.8671 7.2212 25.5703 7.35428 25.5703C7.41132 25.5703 7.56341 25.6972 7.706 25.8437C7.83908 25.9902 8.14326 26.1953 8.36189 26.3027C8.59003 26.4003 8.98928 26.5859 9.24593 26.7128C9.51209 26.83 9.82578 26.9374 9.95887 26.9374C10.1015 26.9374 10.3771 26.996 10.5862 27.0742C11.4132 27.3574 14.4646 27.3378 14.7593 27.0351C14.8163 26.9765 14.9874 26.9374 15.149 26.9374C15.3962 26.9374 15.8524 26.7519 16.3372 26.4687C16.4133 26.4199 16.689 26.2831 16.9456 26.1562C17.1928 26.0292 17.4684 25.8242 17.5445 25.6972C17.63 25.5703 17.7441 25.4726 17.8011 25.4726C17.9342 25.4726 18.6186 24.7695 18.6186 24.6328C18.6186 24.5742 18.7422 24.3886 18.8943 24.2128C19.0464 24.0371 19.227 23.7539 19.284 23.5878C19.3411 23.4121 19.4837 23.08 19.5787 22.8359C19.7593 22.4257 20.0635 20.6191 19.9875 20.4726C19.9589 20.4336 19.9304 20.0918 19.9019 19.7109C19.8734 19.3008 19.7783 18.832 19.6738 18.5976C19.5692 18.3828 19.4646 18.0898 19.4361 17.9531C19.3601 17.6016 18.1148 16 17.9152 16C17.8487 16 17.6585 15.8535 17.4874 15.668C17.3068 15.4824 16.9646 15.2383 16.7175 15.1309C16.4703 15.0234 16.2232 14.8672 16.1566 14.7988C16.0996 14.7207 15.8429 14.584 15.5958 14.4863C15.3486 14.3984 14.9399 14.2129 14.6737 14.0859C14.4171 13.959 14.0463 13.8223 13.8657 13.793C13.6851 13.7539 13.4475 13.666 13.3429 13.5977C13.2384 13.5293 12.9627 13.4219 12.725 13.3633C12.0596 13.1777 10.7193 12.4649 10.4532 12.1524C9.8543 11.4492 9.70221 11.1563 9.73073 10.7657C9.78776 9.88675 9.89232 9.58402 10.1965 9.34964C11.0235 8.70512 11.1661 8.63676 11.9551 8.51957C12.687 8.40238 12.8296 8.41215 13.5711 8.58793C14.0178 8.70512 14.4741 8.87113 14.5787 8.96879C14.6832 9.05668 14.9589 9.26175 15.187 9.418C15.4247 9.57425 15.8049 9.90628 16.0331 10.1602C16.6129 10.8047 16.9931 10.8731 17.4399 10.4239C17.6205 10.2481 17.7631 10.0625 17.7631 10.0235C17.7631 9.98441 17.9152 9.75003 18.0958 9.50589C18.2764 9.26175 18.4665 8.89066 18.5236 8.67582C18.5806 8.46098 18.6662 8.26567 18.7137 8.23637C18.7707 8.20707 18.8087 8.01176 18.8087 7.79692C18.8087 7.48442 18.7422 7.35747 18.343 6.94731C17.8772 6.4688 16.3087 5.55084 15.938 5.55084C15.8429 5.55084 15.6338 5.48248 15.4722 5.40435C15.3201 5.31646 14.9019 5.19928 14.5502 5.15045C13.6281 4.9942 11.4798 4.94537 11.2707 5.07232Z" fill="#25282B"/>
<path d="M1.28424 5.85192C0.970545 6.0863 0.704383 6.64293 0.704383 7.09215C0.704383 7.2484 0.66636 7.39488 0.618831 7.43395C0.533279 7.48277 0.447727 7.91246 0.371681 8.66441C0.0484843 11.7796 -0.00855037 13.2445 0.000955407 18.0296C0.000955407 23.1272 0.134036 25.6858 0.409704 26.2229C0.466738 26.3303 0.514267 26.5061 0.514267 26.6233C0.514267 26.7307 0.618831 26.9358 0.742406 27.0627C0.961039 27.2874 0.989556 27.2874 2.94775 27.2874C4.04091 27.2874 5.0105 27.2678 5.11506 27.2385C5.26716 27.1897 5.28617 27.1213 5.23864 26.6526C5.21012 26.3596 5.12457 25.9104 5.03902 25.6565C4.88692 25.1682 4.71582 24.221 4.64928 23.4495C4.62076 23.176 4.57323 22.8928 4.54472 22.8147C4.5162 22.7366 4.44966 22.2971 4.40213 21.8382C4.06943 18.9085 3.93635 15.5394 4.07893 13.9281C4.11696 13.5765 4.15498 13.0687 4.17399 12.805C4.24053 12.0628 4.39262 10.9398 4.54472 10.0707C4.62076 9.64096 4.73483 8.97691 4.80137 8.60581C4.85841 8.22496 4.94396 7.83433 4.99149 7.72691C5.23864 7.12145 5.40974 5.86169 5.25765 5.7738C5.20061 5.73474 4.34509 5.68591 3.366 5.66638C1.66447 5.64685 1.56941 5.65661 1.28424 5.85192Z" fill="#25282B"/>
<ellipse cx="3.53091" cy="2.60008" rx="2.53091" ry="2.60008" fill="#FDC435"/>
</svg>
