<svg width="20" height="23" viewBox="0 0 20 23" fill="none" xmlns="http://www.w3.org/2000/svg">
<path d="M11.2707 0.0723248C11.1756 0.130919 11.0425 0.150448 10.9665 0.130919C10.8239 0.0723248 9.92084 0.296932 9.74974 0.433651C9.6832 0.482479 9.51209 0.550837 9.36951 0.589899C9.0368 0.668024 8.35239 1.10748 8.35239 1.23443C8.35239 1.29302 8.30486 1.33208 8.23832 1.33208C8.0482 1.33208 7.49687 1.82036 7.34478 2.14263C7.24972 2.31841 7.11664 2.50395 7.03109 2.57231C6.8885 2.66997 6.75542 2.93364 6.28964 4.06644C6.08051 4.57425 5.92842 6.16604 6.0615 6.60549C6.11853 6.81057 6.16606 7.1133 6.16606 7.29885C6.16606 7.48439 6.28013 7.87502 6.41321 8.16798C6.5558 8.46095 6.70789 8.80274 6.75542 8.91017C6.81245 9.02735 6.95504 9.22266 7.07862 9.34962C7.20219 9.47657 7.36379 9.64258 7.43033 9.72071C7.82007 10.1602 8.14326 10.4531 8.43794 10.6191C8.62806 10.7266 8.92274 10.9219 9.10335 11.0488C9.28396 11.1855 9.58814 11.3418 9.77826 11.3906C9.97788 11.4492 10.187 11.5469 10.244 11.6152C10.3011 11.6934 10.5958 11.8301 10.8904 11.9277C11.1946 12.0254 11.5748 12.1621 11.7269 12.2305C11.8885 12.2891 12.2022 12.4062 12.4399 12.4746C12.6775 12.5332 13.1338 12.7187 13.4665 12.8652C13.7897 13.0215 14.1034 13.1484 14.1604 13.1484C14.2175 13.1484 14.5597 13.4023 14.9209 13.7051C15.5863 14.2715 15.7384 14.5449 15.9 15.4726C15.957 15.8047 15.7574 16.3222 15.3581 16.8789C15.0349 17.3281 13.9513 17.7968 12.9627 17.9043C10.5292 18.1875 8.66608 17.25 7.69649 15.248C7.47786 14.7988 7.30675 14.3496 7.30675 14.2324C7.30675 13.8906 6.90751 12.7578 6.78394 12.7578C6.62234 12.7578 6.16606 13.2754 6.16606 13.4707C6.16606 13.5586 6.10903 13.666 6.03298 13.7051C5.82385 13.832 5.61473 14.3496 5.45313 15.1504C5.32955 15.7656 5.32005 16.0781 5.39609 16.8691C5.45313 17.4453 5.54819 17.9238 5.63374 18.0507C5.71929 18.1679 5.78583 18.3632 5.78583 18.4707C5.78583 18.7148 6.12804 19.3007 6.36568 19.4765C6.47025 19.5449 6.54629 19.6621 6.54629 19.7304C6.54629 19.8671 7.2212 20.5703 7.35428 20.5703C7.41132 20.5703 7.56341 20.6972 7.706 20.8437C7.83908 20.9902 8.14326 21.1953 8.36189 21.3027C8.59003 21.4003 8.98928 21.5859 9.24593 21.7128C9.51209 21.83 9.82578 21.9374 9.95887 21.9374C10.1015 21.9374 10.3771 21.996 10.5862 22.0742C11.4132 22.3574 14.4646 22.3378 14.7593 22.0351C14.8163 21.9765 14.9874 21.9374 15.149 21.9374C15.3962 21.9374 15.8524 21.7519 16.3372 21.4687C16.4133 21.4199 16.689 21.2831 16.9456 21.1562C17.1928 21.0292 17.4684 20.8242 17.5445 20.6972C17.63 20.5703 17.7441 20.4726 17.8011 20.4726C17.9342 20.4726 18.6186 19.7695 18.6186 19.6328C18.6186 19.5742 18.7422 19.3886 18.8943 19.2128C19.0464 19.0371 19.227 18.7539 19.284 18.5878C19.3411 18.4121 19.4837 18.08 19.5787 17.8359C19.7593 17.4257 20.0635 15.6191 19.9875 15.4726C19.9589 15.4336 19.9304 15.0918 19.9019 14.7109C19.8734 14.3008 19.7783 13.832 19.6738 13.5976C19.5692 13.3828 19.4646 13.0898 19.4361 12.9531C19.3601 12.6016 18.1148 11 17.9152 11C17.8487 11 17.6585 10.8535 17.4874 10.668C17.3068 10.4824 16.9646 10.2383 16.7175 10.1309C16.4703 10.0234 16.2232 9.86719 16.1566 9.79883C16.0996 9.72071 15.8429 9.58399 15.5958 9.48633C15.3486 9.39845 14.9399 9.2129 14.6737 9.08595C14.4171 8.95899 14.0463 8.82228 13.8657 8.79298C13.6851 8.75392 13.4475 8.66603 13.3429 8.59767C13.2384 8.52931 12.9627 8.42189 12.725 8.36329C12.0596 8.17775 10.7193 7.46486 10.4532 7.15236C9.8543 6.44924 9.70221 6.15627 9.73073 5.76565C9.78776 4.88675 9.89232 4.58402 10.1965 4.34964C11.0235 3.70512 11.1661 3.63676 11.9551 3.51957C12.687 3.40238 12.8296 3.41215 13.5711 3.58793C14.0178 3.70512 14.4741 3.87113 14.5787 3.96879C14.6832 4.05668 14.9589 4.26175 15.187 4.418C15.4247 4.57425 15.8049 4.90628 16.0331 5.16019C16.6129 5.80471 16.9931 5.87307 17.4399 5.42386C17.6205 5.24808 17.7631 5.06253 17.7631 5.02347C17.7631 4.98441 17.9152 4.75003 18.0958 4.50589C18.2764 4.26175 18.4665 3.89066 18.5236 3.67582C18.5806 3.46098 18.6662 3.26567 18.7137 3.23637C18.7707 3.20707 18.8087 3.01176 18.8087 2.79692C18.8087 2.48442 18.7422 2.35747 18.343 1.94731C17.8772 1.4688 16.3087 0.550837 15.938 0.550837C15.8429 0.550837 15.6338 0.482479 15.4722 0.404354C15.3201 0.316463 14.9019 0.199276 14.5502 0.150448C13.6281 -0.00580025 11.4798 -0.0546284 11.2707 0.0723248Z" fill="#25282B"/>
<path d="M1.28424 0.851923C0.970545 1.0863 0.704383 1.64293 0.704383 2.09215C0.704383 2.2484 0.66636 2.39488 0.618831 2.43395C0.533279 2.48277 0.447727 2.91246 0.371681 3.66441C0.0484843 6.77962 -0.00855037 8.24446 0.000955407 13.0296C0.000955407 18.1272 0.134036 20.6858 0.409704 21.2229C0.466738 21.3303 0.514267 21.5061 0.514267 21.6233C0.514267 21.7307 0.618831 21.9358 0.742406 22.0627C0.961039 22.2874 0.989556 22.2874 2.94775 22.2874C4.04091 22.2874 5.0105 22.2678 5.11506 22.2385C5.26716 22.1897 5.28617 22.1213 5.23864 21.6526C5.21012 21.3596 5.12457 20.9104 5.03902 20.6565C4.88692 20.1682 4.71582 19.221 4.64928 18.4495C4.62076 18.176 4.57323 17.8928 4.54472 17.8147C4.5162 17.7366 4.44966 17.2971 4.40213 16.8382C4.06943 13.9085 3.93635 10.5394 4.07893 8.92805C4.11696 8.57649 4.15498 8.06868 4.17399 7.80501C4.24053 7.06283 4.39262 5.93979 4.54472 5.07065C4.62076 4.64096 4.73483 3.97691 4.80137 3.60581C4.85841 3.22496 4.94396 2.83433 4.99149 2.72691C5.23864 2.12145 5.40974 0.861689 5.25765 0.773798C5.20061 0.734735 4.34509 0.685909 3.366 0.666378C1.66447 0.646847 1.56941 0.656612 1.28424 0.851923Z" fill="#25282B"/>


</svg>
